<?xml version="1.0" encoding="utf-8"?>
<!-- Generator: Adobe Illustrator 21.1.0, SVG Export Plug-In . SVG Version: 6.00 Build 0)  -->
<svg version="1.1" id="图层_1" xmlns="http://www.w3.org/2000/svg" xmlns:xlink="http://www.w3.org/1999/xlink" x="0px" y="0px"
	 viewBox="0 0 14 14" style="enable-background:new 0 0 14 14;" xml:space="preserve">
<style type="text/css">
	.st0{fill:#CACACA;}
</style>
<title>Group 4</title>
<desc>Created with Sketch.</desc>
<path class="st0" d="M8.1,6.7l4.9-4.9c0.4-0.4,0.4-1,0-1.4s-1-0.4-1.4,0L6.7,5.3L1.8,0.4C1.4,0,0.8,0,0.4,0.4s-0.4,1,0,1.4l4.9,4.9
	l-4.9,4.9c-0.4,0.4-0.4,1,0,1.4c0.4,0.4,1,0.4,1.4,0l4.9-4.9l4.9,4.9c0.4,0.4,1,0.4,1.4,0c0.4-0.4,0.4-1,0-1.4L8.1,6.7z"/>
</svg>
