<?xml version="1.0" encoding="utf-8"?>
<!-- Generator: Adobe Illustrator 21.1.0, SVG Export Plug-In . SVG Version: 6.00 Build 0)  -->
<svg version="1.1" id="图层_1" xmlns="http://www.w3.org/2000/svg" xmlns:xlink="http://www.w3.org/1999/xlink" x="0px" y="0px"
	 viewBox="0 0 18 18" style="enable-background:new 0 0 18 18;" xml:space="preserve">
<style type="text/css">
	.st0{fill:none;}
	.st1{fill:#CACACA;}
</style>
<title>主播</title>
<desc>Created with Sketch.</desc>
<g id="_x31_6-copy" transform="translate(-875.000000, -518.000000)">
	<g id="主播" transform="translate(875.000000, 518.000000)">
		<rect id="Rectangle-10" class="st0" width="14" height="14"/>
		<g>
			<path class="st1" d="M9,0C4,0,0,4,0,9s4,9,9,9s9-4,9-9S14,0,9,0z M14.2,13.5c-0.4,0.1-0.8-0.1-0.9-0.5C12.8,11.1,11,9.8,9,9.8
				c0,0,0,0,0,0c-2,0-3.8,1.3-4.3,3.2c-0.1,0.4-0.5,0.6-0.9,0.5S3.2,13,3.3,12.6c0.4-1.7,1.6-3.1,3.2-3.8C5.7,8.1,5.2,7.1,5.2,6
				c0-2.1,1.7-3.8,3.8-3.8s3.8,1.7,3.8,3.8c0,1.1-0.5,2.1-1.2,2.8c1.6,0.7,2.8,2.1,3.2,3.8C14.8,13,14.6,13.4,14.2,13.5z"/>
			<circle class="st1" cx="9" cy="6" r="2.2"/>
		</g>
	</g>
</g>
</svg>
